<?xml version="1.0" standalone="no"?>
<!DOCTYPE svg PUBLIC "-//W3C//DTD SVG 20010904//EN"
 "http://www.w3.org/TR/2001/REC-SVG-20010904/DTD/svg10.dtd">
<svg version="1.0" xmlns="http://www.w3.org/2000/svg"
 width="633.000000pt" height="633.000000pt" viewBox="0 0 633.000000 633.000000"
 preserveAspectRatio="xMidYMid meet">
<metadata>
Created by potrace 1.14, written by Peter Selinger 2001-2017
</metadata>
<g transform="translate(0.000000,633.000000) scale(0.100000,-0.100000)"
fill="#000000" stroke="none">
<path d="M402 4918 c0 -469 -1 -857 -1 -863 -1 -6 -40 -9 -101 -8 -55 0 -102
-2 -104 -6 -3 -4 6 -45 19 -91 13 -47 49 -184 80 -305 117 -448 136 -521 145
-555 5 -19 37 -141 71 -270 34 -129 69 -262 78 -294 l17 -60 43 165 c24 90 65
247 92 349 27 101 52 197 54 212 3 15 10 39 15 53 5 14 12 36 14 48 2 12 46
180 96 372 51 193 93 357 95 366 3 15 -8 17 -92 15 -52 0 -100 2 -106 6 -7 4
-10 262 -10 862 l0 856 -202 0 -202 0 -1 -852z"/>
<path d="M3085 5052 c-2 -2 -33 -5 -70 -7 -37 -2 -85 -7 -108 -11 -23 -3 -51
-7 -62 -9 -73 -9 -276 -62 -330 -85 -11 -5 -49 -21 -85 -35 -91 -37 -149 -65
-156 -76 -3 -5 -9 -7 -14 -4 -4 3 -13 -2 -20 -10 -7 -8 -17 -15 -22 -15 -9 0
-176 -107 -188 -120 -3 -3 -25 -21 -50 -40 -25 -19 -54 -44 -66 -55 -11 -11
-36 -34 -55 -50 -76 -67 -289 -326 -289 -351 0 -4 -6 -15 -14 -23 -15 -17
-122 -223 -143 -276 -54 -135 -103 -311 -118 -420 -3 -16 -7 -46 -10 -65 -29
-193 -20 -432 25 -645 6 -27 12 -60 14 -72 2 -12 23 -77 46 -145 111 -322 302
-608 550 -818 35 -30 71 -61 78 -68 15 -14 201 -137 217 -143 6 -2 39 -20 75
-39 36 -19 67 -34 70 -35 3 0 21 -8 40 -17 46 -21 144 -59 161 -62 8 -2 21 -6
29 -9 22 -9 213 -55 230 -55 8 0 26 -3 40 -6 117 -27 439 -28 606 -1 23 4 159
33 184 40 94 25 210 64 228 78 6 5 12 7 12 3 0 -10 234 111 304 158 37 26 70
46 72 46 3 0 11 6 18 13 7 6 28 23 46 37 219 166 414 406 539 664 71 144 141
346 157 451 3 22 8 43 10 47 2 3 6 28 9 55 3 26 8 73 12 103 14 109 7 378 -12
470 -3 14 -7 36 -9 50 -8 56 -57 230 -86 310 -17 47 -34 93 -37 103 -3 9 -9
17 -13 17 -13 0 -460 -450 -460 -463 0 -7 4 -27 9 -45 25 -86 35 -373 18 -487
-52 -334 -210 -613 -459 -811 -48 -38 -94 -70 -103 -72 -8 -2 -15 -8 -15 -13
0 -5 -6 -9 -14 -9 -8 0 -16 -3 -18 -7 -2 -7 -111 -64 -128 -68 -3 -1 -22 -9
-44 -18 -21 -9 -48 -19 -60 -22 -11 -3 -55 -14 -96 -25 -108 -29 -157 -35
-320 -34 -155 1 -249 15 -394 61 -132 41 -284 117 -366 183 -14 11 -28 20 -33
20 -19 0 -214 189 -262 255 -17 22 -32 42 -36 45 -14 13 -101 162 -125 215
-57 128 -100 286 -109 403 -5 56 -6 197 -1 232 12 102 21 150 32 183 7 20 11
37 9 37 -6 0 41 131 67 190 12 25 38 73 59 108 22 35 39 68 39 72 0 5 3 10 8
12 4 2 20 22 36 46 28 41 188 208 236 247 57 45 150 105 223 145 67 36 212 95
257 105 8 2 37 8 63 14 143 33 397 36 527 6 14 -4 32 -7 39 -9 8 -1 118 101
245 228 l229 230 -44 19 c-66 28 -239 85 -279 92 -19 3 -46 9 -60 14 -31 12
-152 29 -250 37 -86 7 -230 11 -235 6z"/>
<path d="M3968 4275 c-283 -283 -520 -515 -527 -515 -6 0 -19 4 -29 9 -22 12
-53 23 -72 26 -8 1 -42 7 -75 13 -48 8 -200 10 -200 2 0 -1 -13 -4 -30 -6 -43
-7 -152 -50 -207 -82 -293 -170 -406 -558 -253 -864 62 -124 172 -234 291
-293 40 -20 76 -36 79 -36 2 0 23 -6 45 -14 39 -14 153 -31 170 -26 3 1 30 3
61 5 192 12 371 112 484 271 41 57 92 157 100 195 2 8 8 38 15 65 12 52 14
177 5 230 -3 17 -15 61 -26 99 l-21 69 293 293 c228 228 293 298 295 321 2 15
8 55 13 88 6 33 13 71 15 85 2 14 7 41 10 60 13 79 16 97 22 130 3 19 12 71
19 115 19 104 23 129 31 184 4 25 11 56 15 69 5 12 5 22 0 22 -4 0 -240 -232
-523 -515z"/>
<path d="M5520 3714 c0 -7 -13 -56 -55 -214 -10 -37 -97 -369 -133 -510 -22
-86 -55 -209 -72 -273 -17 -65 -33 -125 -35 -135 -2 -9 -29 -111 -59 -227 -31
-115 -56 -211 -56 -212 0 -1 45 -1 100 -1 55 1 103 -2 107 -5 3 -4 6 -392 6
-862 l0 -855 202 0 202 0 0 855 c0 471 2 858 5 860 2 3 50 6 105 6 96 2 100 3
96 23 -9 39 -95 370 -130 501 -19 72 -36 138 -38 147 -2 10 -16 62 -30 115
-15 54 -28 105 -30 113 -2 8 -17 69 -35 135 -35 135 -89 340 -119 459 -19 73
-31 103 -31 80z"/>
</g>
</svg>
